<mxfile host="Electron" agent="Mozilla/5.0 (Macintosh; Intel Mac OS X 10_15_7) AppleWebKit/537.36 (KHTML, like Gecko) draw.io/24.7.17 Chrome/128.0.6613.36 Electron/32.0.1 Safari/537.36" version="24.7.17">
  <diagram name="Page-1" id="tBIAlemMxgHySIvlNtww">
    <mxGraphModel dx="603" dy="929" grid="1" gridSize="10" guides="1" tooltips="1" connect="1" arrows="1" fold="1" page="1" pageScale="1" pageWidth="1920" pageHeight="1200" math="0" shadow="0">
      <root>
        <mxCell id="0" />
        <mxCell id="1" parent="0" />
        <mxCell id="ERGdIT2w2F6xUF8PgBJa-243" value="rst_n_c" style="text;html=1;align=center;verticalAlign=middle;resizable=0;points=[];autosize=1;strokeColor=none;fillColor=none;fontColor=#999999;" parent="1" vertex="1">
          <mxGeometry x="732" y="125" width="60" height="30" as="geometry" />
        </mxCell>
        <mxCell id="ERGdIT2w2F6xUF8PgBJa-136" value="3" style="text;html=1;align=center;verticalAlign=middle;resizable=0;points=[];autosize=1;strokeColor=none;fillColor=none;" parent="1" vertex="1">
          <mxGeometry x="339" y="506" width="30" height="30" as="geometry" />
        </mxCell>
        <mxCell id="ERGdIT2w2F6xUF8PgBJa-146" value="2" style="text;html=1;align=center;verticalAlign=middle;resizable=0;points=[];autosize=1;strokeColor=none;fillColor=none;fontSize=9;" parent="1" vertex="1">
          <mxGeometry x="350" y="519" width="30" height="20" as="geometry" />
        </mxCell>
        <mxCell id="ERGdIT2w2F6xUF8PgBJa-147" value="" style="group" parent="1" vertex="1" connectable="0">
          <mxGeometry x="350" y="491" width="30" height="24" as="geometry" />
        </mxCell>
        <mxCell id="ERGdIT2w2F6xUF8PgBJa-148" value="" style="endArrow=none;html=1;rounded=0;" parent="ERGdIT2w2F6xUF8PgBJa-147" edge="1">
          <mxGeometry width="50" height="50" relative="1" as="geometry">
            <mxPoint x="14" y="24" as="sourcePoint" />
            <mxPoint x="19" y="14" as="targetPoint" />
          </mxGeometry>
        </mxCell>
        <mxCell id="ERGdIT2w2F6xUF8PgBJa-149" value="2" style="text;html=1;align=center;verticalAlign=middle;resizable=0;points=[];autosize=1;strokeColor=none;fillColor=none;fontSize=9;" parent="ERGdIT2w2F6xUF8PgBJa-147" vertex="1">
          <mxGeometry width="30" height="20" as="geometry" />
        </mxCell>
        <mxCell id="ERGdIT2w2F6xUF8PgBJa-103" value="2" style="text;html=1;align=center;verticalAlign=middle;resizable=0;points=[];autosize=1;strokeColor=none;fillColor=none;" parent="1" vertex="1">
          <mxGeometry x="339" y="386" width="30" height="30" as="geometry" />
        </mxCell>
        <mxCell id="ERGdIT2w2F6xUF8PgBJa-114" value="" style="group" parent="1" vertex="1" connectable="0">
          <mxGeometry x="350" y="371" width="30" height="24" as="geometry" />
        </mxCell>
        <mxCell id="ERGdIT2w2F6xUF8PgBJa-115" value="" style="endArrow=none;html=1;rounded=0;" parent="ERGdIT2w2F6xUF8PgBJa-114" edge="1">
          <mxGeometry width="50" height="50" relative="1" as="geometry">
            <mxPoint x="14" y="24" as="sourcePoint" />
            <mxPoint x="19" y="14" as="targetPoint" />
          </mxGeometry>
        </mxCell>
        <mxCell id="ERGdIT2w2F6xUF8PgBJa-116" value="2" style="text;html=1;align=center;verticalAlign=middle;resizable=0;points=[];autosize=1;strokeColor=none;fillColor=none;fontSize=9;" parent="ERGdIT2w2F6xUF8PgBJa-114" vertex="1">
          <mxGeometry width="30" height="20" as="geometry" />
        </mxCell>
        <mxCell id="ERGdIT2w2F6xUF8PgBJa-17" value="0" style="text;html=1;align=center;verticalAlign=middle;resizable=0;points=[];autosize=1;strokeColor=none;fillColor=none;" parent="1" vertex="1">
          <mxGeometry x="339" y="146" width="30" height="30" as="geometry" />
        </mxCell>
        <mxCell id="ERGdIT2w2F6xUF8PgBJa-42" value="" style="group" parent="1" vertex="1" connectable="0">
          <mxGeometry x="350" y="131" width="30" height="24" as="geometry" />
        </mxCell>
        <mxCell id="ERGdIT2w2F6xUF8PgBJa-43" value="" style="endArrow=none;html=1;rounded=0;" parent="ERGdIT2w2F6xUF8PgBJa-42" edge="1">
          <mxGeometry width="50" height="50" relative="1" as="geometry">
            <mxPoint x="14" y="24" as="sourcePoint" />
            <mxPoint x="19" y="14" as="targetPoint" />
          </mxGeometry>
        </mxCell>
        <mxCell id="ERGdIT2w2F6xUF8PgBJa-44" value="2" style="text;html=1;align=center;verticalAlign=middle;resizable=0;points=[];autosize=1;strokeColor=none;fillColor=none;fontSize=9;" parent="ERGdIT2w2F6xUF8PgBJa-42" vertex="1">
          <mxGeometry width="30" height="20" as="geometry" />
        </mxCell>
        <mxCell id="ERGdIT2w2F6xUF8PgBJa-70" value="1" style="text;html=1;align=center;verticalAlign=middle;resizable=0;points=[];autosize=1;strokeColor=none;fillColor=none;" parent="1" vertex="1">
          <mxGeometry x="339" y="266" width="30" height="30" as="geometry" />
        </mxCell>
        <mxCell id="ERGdIT2w2F6xUF8PgBJa-81" value="" style="group" parent="1" vertex="1" connectable="0">
          <mxGeometry x="350" y="251" width="30" height="24" as="geometry" />
        </mxCell>
        <mxCell id="ERGdIT2w2F6xUF8PgBJa-82" value="" style="endArrow=none;html=1;rounded=0;" parent="ERGdIT2w2F6xUF8PgBJa-81" edge="1">
          <mxGeometry width="50" height="50" relative="1" as="geometry">
            <mxPoint x="14" y="24" as="sourcePoint" />
            <mxPoint x="19" y="14" as="targetPoint" />
          </mxGeometry>
        </mxCell>
        <mxCell id="ERGdIT2w2F6xUF8PgBJa-83" value="2" style="text;html=1;align=center;verticalAlign=middle;resizable=0;points=[];autosize=1;strokeColor=none;fillColor=none;fontSize=9;" parent="ERGdIT2w2F6xUF8PgBJa-81" vertex="1">
          <mxGeometry width="30" height="20" as="geometry" />
        </mxCell>
        <mxCell id="ERGdIT2w2F6xUF8PgBJa-173" value="" style="group" parent="1" vertex="1" connectable="0">
          <mxGeometry x="579" y="531" width="30" height="24" as="geometry" />
        </mxCell>
        <mxCell id="ERGdIT2w2F6xUF8PgBJa-174" value="" style="endArrow=none;html=1;rounded=0;" parent="ERGdIT2w2F6xUF8PgBJa-173" edge="1">
          <mxGeometry width="50" height="50" relative="1" as="geometry">
            <mxPoint x="14" y="24" as="sourcePoint" />
            <mxPoint x="19" y="14" as="targetPoint" />
          </mxGeometry>
        </mxCell>
        <mxCell id="ERGdIT2w2F6xUF8PgBJa-175" value="8" style="text;html=1;align=center;verticalAlign=middle;resizable=0;points=[];autosize=1;strokeColor=none;fillColor=none;fontSize=9;" parent="ERGdIT2w2F6xUF8PgBJa-173" vertex="1">
          <mxGeometry y="2" width="30" height="20" as="geometry" />
        </mxCell>
        <mxCell id="ERGdIT2w2F6xUF8PgBJa-165" value="" style="group" parent="1" vertex="1" connectable="0">
          <mxGeometry x="579" y="291" width="30" height="24" as="geometry" />
        </mxCell>
        <mxCell id="ERGdIT2w2F6xUF8PgBJa-166" value="" style="endArrow=none;html=1;rounded=0;" parent="ERGdIT2w2F6xUF8PgBJa-165" edge="1">
          <mxGeometry width="50" height="50" relative="1" as="geometry">
            <mxPoint x="14" y="24" as="sourcePoint" />
            <mxPoint x="19" y="14" as="targetPoint" />
          </mxGeometry>
        </mxCell>
        <mxCell id="ERGdIT2w2F6xUF8PgBJa-167" value="8" style="text;html=1;align=center;verticalAlign=middle;resizable=0;points=[];autosize=1;strokeColor=none;fillColor=none;fontSize=9;" parent="ERGdIT2w2F6xUF8PgBJa-165" vertex="1">
          <mxGeometry y="2" width="30" height="20" as="geometry" />
        </mxCell>
        <mxCell id="ERGdIT2w2F6xUF8PgBJa-3" value="&lt;div style=&quot;font-size: 13px; line-height: 140%;&quot;&gt;&lt;b&gt;FIFO_8&lt;/b&gt;&lt;/div&gt;&lt;div style=&quot;line-height: 3.6px;&quot;&gt;&lt;font size=&quot;1&quot;&gt;w/modified&lt;/font&gt;&lt;/div&gt;" style="rounded=1;whiteSpace=wrap;html=1;" parent="1" vertex="1">
          <mxGeometry x="440" y="140" width="140" height="100" as="geometry" />
        </mxCell>
        <mxCell id="ERGdIT2w2F6xUF8PgBJa-4" value="" style="triangle;whiteSpace=wrap;html=1;rotation=-90;" parent="1" vertex="1">
          <mxGeometry x="504.75" y="227" width="11" height="15" as="geometry" />
        </mxCell>
        <mxCell id="ERGdIT2w2F6xUF8PgBJa-5" value="" style="endArrow=classic;html=1;rounded=0;" parent="1" edge="1">
          <mxGeometry width="50" height="50" relative="1" as="geometry">
            <mxPoint x="420" y="200" as="sourcePoint" />
            <mxPoint x="440" y="200" as="targetPoint" />
          </mxGeometry>
        </mxCell>
        <mxCell id="ERGdIT2w2F6xUF8PgBJa-6" value="a" style="text;html=1;align=center;verticalAlign=middle;resizable=0;points=[];autosize=1;strokeColor=none;fillColor=none;" parent="1" vertex="1">
          <mxGeometry x="398" y="184" width="30" height="30" as="geometry" />
        </mxCell>
        <mxCell id="ERGdIT2w2F6xUF8PgBJa-7" value="" style="endArrow=classic;html=1;rounded=0;exitX=1;exitY=0.5;exitDx=0;exitDy=0;exitPerimeter=0;" parent="1" edge="1">
          <mxGeometry width="50" height="50" relative="1" as="geometry">
            <mxPoint x="415" y="155" as="sourcePoint" />
            <mxPoint x="440" y="155" as="targetPoint" />
          </mxGeometry>
        </mxCell>
        <mxCell id="ERGdIT2w2F6xUF8PgBJa-8" value="" style="endArrow=classic;html=1;rounded=0;" parent="1" edge="1">
          <mxGeometry width="50" height="50" relative="1" as="geometry">
            <mxPoint x="420" y="220" as="sourcePoint" />
            <mxPoint x="440" y="220" as="targetPoint" />
          </mxGeometry>
        </mxCell>
        <mxCell id="ERGdIT2w2F6xUF8PgBJa-9" value="" style="endArrow=classic;html=1;rounded=0;" parent="1" edge="1">
          <mxGeometry width="50" height="50" relative="1" as="geometry">
            <mxPoint x="420" y="180" as="sourcePoint" />
            <mxPoint x="440" y="180" as="targetPoint" />
          </mxGeometry>
        </mxCell>
        <mxCell id="ERGdIT2w2F6xUF8PgBJa-12" value="&lt;p style=&quot;line-height: 0%;&quot;&gt;==&lt;/p&gt;&lt;div style=&quot;line-height: 0%;&quot;&gt;&lt;font style=&quot;font-size: 9px;&quot;&gt;2bit&lt;/font&gt;&lt;/div&gt;&lt;p&gt;&lt;/p&gt;" style="rounded=1;whiteSpace=wrap;html=1;" parent="1" vertex="1">
          <mxGeometry x="380" y="140" width="40" height="30" as="geometry" />
        </mxCell>
        <mxCell id="ERGdIT2w2F6xUF8PgBJa-14" value="" style="endArrow=classic;html=1;rounded=0;edgeStyle=orthogonalEdgeStyle;" parent="1" edge="1">
          <mxGeometry width="50" height="50" relative="1" as="geometry">
            <mxPoint x="340" y="270" as="sourcePoint" />
            <mxPoint x="380" y="149.89999999999998" as="targetPoint" />
            <Array as="points">
              <mxPoint x="340" y="150" />
            </Array>
          </mxGeometry>
        </mxCell>
        <mxCell id="ERGdIT2w2F6xUF8PgBJa-16" value="" style="endArrow=classic;html=1;rounded=0;" parent="1" edge="1">
          <mxGeometry width="50" height="50" relative="1" as="geometry">
            <mxPoint x="360" y="160" as="sourcePoint" />
            <mxPoint x="380" y="160" as="targetPoint" />
          </mxGeometry>
        </mxCell>
        <mxCell id="ERGdIT2w2F6xUF8PgBJa-26" value="wen[0]" style="text;html=1;align=center;verticalAlign=middle;resizable=0;points=[];autosize=1;strokeColor=none;fillColor=none;" parent="1" vertex="1">
          <mxGeometry x="370" y="164" width="60" height="30" as="geometry" />
        </mxCell>
        <mxCell id="ERGdIT2w2F6xUF8PgBJa-28" value="ren" style="text;html=1;align=center;verticalAlign=middle;resizable=0;points=[];autosize=1;strokeColor=none;fillColor=none;fontColor=#999999;" parent="1" vertex="1">
          <mxGeometry x="433" y="139" width="40" height="30" as="geometry" />
        </mxCell>
        <mxCell id="ERGdIT2w2F6xUF8PgBJa-29" value="rst_n" style="text;html=1;align=center;verticalAlign=middle;resizable=0;points=[];autosize=1;strokeColor=none;fillColor=none;fontColor=#999999;" parent="1" vertex="1">
          <mxGeometry x="433" y="204" width="50" height="30" as="geometry" />
        </mxCell>
        <mxCell id="ERGdIT2w2F6xUF8PgBJa-31" value="wen" style="text;html=1;align=center;verticalAlign=middle;resizable=0;points=[];autosize=1;strokeColor=none;fillColor=none;fontColor=#999999;" parent="1" vertex="1">
          <mxGeometry x="430" y="164" width="50" height="30" as="geometry" />
        </mxCell>
        <mxCell id="ERGdIT2w2F6xUF8PgBJa-32" value="din" style="text;html=1;align=center;verticalAlign=middle;resizable=0;points=[];autosize=1;strokeColor=none;fillColor=none;fontColor=#999999;" parent="1" vertex="1">
          <mxGeometry x="432" y="185" width="40" height="30" as="geometry" />
        </mxCell>
        <mxCell id="ERGdIT2w2F6xUF8PgBJa-33" value="dout" style="text;html=1;align=center;verticalAlign=middle;resizable=0;points=[];autosize=1;strokeColor=none;fillColor=none;fontColor=#999999;" parent="1" vertex="1">
          <mxGeometry x="539" y="173" width="50" height="30" as="geometry" />
        </mxCell>
        <mxCell id="ERGdIT2w2F6xUF8PgBJa-34" style="edgeStyle=orthogonalEdgeStyle;rounded=0;orthogonalLoop=1;jettySize=auto;html=1;exitX=1;exitY=0.5;exitDx=0;exitDy=0;entryX=0.5;entryY=1;entryDx=0;entryDy=0;endArrow=classic;endFill=1;strokeWidth=1;endSize=3;" parent="1" target="ERGdIT2w2F6xUF8PgBJa-3" edge="1">
          <mxGeometry relative="1" as="geometry">
            <mxPoint x="480" y="250" as="sourcePoint" />
            <mxPoint x="510" y="250" as="targetPoint" />
          </mxGeometry>
        </mxCell>
        <mxCell id="ERGdIT2w2F6xUF8PgBJa-35" value="clk" style="text;html=1;align=center;verticalAlign=middle;resizable=0;points=[];autosize=1;strokeColor=none;fillColor=none;" parent="1" vertex="1">
          <mxGeometry x="449" y="234" width="40" height="30" as="geometry" />
        </mxCell>
        <mxCell id="ERGdIT2w2F6xUF8PgBJa-40" value="" style="endArrow=none;html=1;rounded=0;" parent="1" edge="1">
          <mxGeometry width="50" height="50" relative="1" as="geometry">
            <mxPoint x="364" y="165" as="sourcePoint" />
            <mxPoint x="369" y="155" as="targetPoint" />
          </mxGeometry>
        </mxCell>
        <mxCell id="ERGdIT2w2F6xUF8PgBJa-41" value="2" style="text;html=1;align=center;verticalAlign=middle;resizable=0;points=[];autosize=1;strokeColor=none;fillColor=none;fontSize=9;" parent="1" vertex="1">
          <mxGeometry x="350" y="159" width="30" height="20" as="geometry" />
        </mxCell>
        <mxCell id="ERGdIT2w2F6xUF8PgBJa-51" value="" style="group" parent="1" vertex="1" connectable="0">
          <mxGeometry x="410" y="181" width="30" height="24" as="geometry" />
        </mxCell>
        <mxCell id="ERGdIT2w2F6xUF8PgBJa-52" value="" style="endArrow=none;html=1;rounded=0;" parent="ERGdIT2w2F6xUF8PgBJa-51" edge="1">
          <mxGeometry width="50" height="50" relative="1" as="geometry">
            <mxPoint x="14" y="24" as="sourcePoint" />
            <mxPoint x="19" y="14" as="targetPoint" />
          </mxGeometry>
        </mxCell>
        <mxCell id="ERGdIT2w2F6xUF8PgBJa-53" value="8" style="text;html=1;align=center;verticalAlign=middle;resizable=0;points=[];autosize=1;strokeColor=none;fillColor=none;fontSize=9;" parent="ERGdIT2w2F6xUF8PgBJa-51" vertex="1">
          <mxGeometry y="2" width="30" height="20" as="geometry" />
        </mxCell>
        <mxCell id="ERGdIT2w2F6xUF8PgBJa-54" value="" style="group" parent="1" vertex="1" connectable="0">
          <mxGeometry x="579" y="171" width="30" height="24" as="geometry" />
        </mxCell>
        <mxCell id="ERGdIT2w2F6xUF8PgBJa-55" value="" style="endArrow=none;html=1;rounded=0;" parent="ERGdIT2w2F6xUF8PgBJa-54" edge="1">
          <mxGeometry width="50" height="50" relative="1" as="geometry">
            <mxPoint x="14" y="24" as="sourcePoint" />
            <mxPoint x="19" y="14" as="targetPoint" />
          </mxGeometry>
        </mxCell>
        <mxCell id="ERGdIT2w2F6xUF8PgBJa-56" value="8" style="text;html=1;align=center;verticalAlign=middle;resizable=0;points=[];autosize=1;strokeColor=none;fillColor=none;fontSize=9;" parent="ERGdIT2w2F6xUF8PgBJa-54" vertex="1">
          <mxGeometry y="2" width="30" height="20" as="geometry" />
        </mxCell>
        <mxCell id="ERGdIT2w2F6xUF8PgBJa-57" value="error" style="text;html=1;align=center;verticalAlign=middle;resizable=0;points=[];autosize=1;strokeColor=none;fillColor=none;fontColor=#999999;" parent="1" vertex="1">
          <mxGeometry x="539" y="204" width="50" height="30" as="geometry" />
        </mxCell>
        <mxCell id="ERGdIT2w2F6xUF8PgBJa-58" value="rst_n" style="text;html=1;align=center;verticalAlign=middle;resizable=0;points=[];autosize=1;strokeColor=none;fillColor=none;" parent="1" vertex="1">
          <mxGeometry x="378" y="203" width="50" height="30" as="geometry" />
        </mxCell>
        <mxCell id="ERGdIT2w2F6xUF8PgBJa-59" value="&lt;div style=&quot;font-size: 13px; line-height: 140%;&quot;&gt;&lt;b&gt;FIFO_8&lt;/b&gt;&lt;/div&gt;&lt;div style=&quot;line-height: 3.6px;&quot;&gt;&lt;font size=&quot;1&quot;&gt;w/modified&lt;/font&gt;&lt;/div&gt;" style="rounded=1;whiteSpace=wrap;html=1;" parent="1" vertex="1">
          <mxGeometry x="440" y="260" width="140" height="100" as="geometry" />
        </mxCell>
        <mxCell id="ERGdIT2w2F6xUF8PgBJa-60" value="" style="triangle;whiteSpace=wrap;html=1;rotation=-90;" parent="1" vertex="1">
          <mxGeometry x="504.75" y="347" width="11" height="15" as="geometry" />
        </mxCell>
        <mxCell id="ERGdIT2w2F6xUF8PgBJa-61" value="" style="endArrow=classic;html=1;rounded=0;" parent="1" edge="1">
          <mxGeometry width="50" height="50" relative="1" as="geometry">
            <mxPoint x="420" y="320" as="sourcePoint" />
            <mxPoint x="440" y="320" as="targetPoint" />
          </mxGeometry>
        </mxCell>
        <mxCell id="ERGdIT2w2F6xUF8PgBJa-62" value="b" style="text;html=1;align=center;verticalAlign=middle;resizable=0;points=[];autosize=1;strokeColor=none;fillColor=none;" parent="1" vertex="1">
          <mxGeometry x="398" y="304" width="30" height="30" as="geometry" />
        </mxCell>
        <mxCell id="ERGdIT2w2F6xUF8PgBJa-63" value="" style="endArrow=classic;html=1;rounded=0;exitX=1;exitY=0.5;exitDx=0;exitDy=0;exitPerimeter=0;" parent="1" edge="1">
          <mxGeometry width="50" height="50" relative="1" as="geometry">
            <mxPoint x="415" y="275" as="sourcePoint" />
            <mxPoint x="440" y="275" as="targetPoint" />
          </mxGeometry>
        </mxCell>
        <mxCell id="ERGdIT2w2F6xUF8PgBJa-64" value="" style="endArrow=classic;html=1;rounded=0;" parent="1" edge="1">
          <mxGeometry width="50" height="50" relative="1" as="geometry">
            <mxPoint x="420" y="340" as="sourcePoint" />
            <mxPoint x="440" y="340" as="targetPoint" />
          </mxGeometry>
        </mxCell>
        <mxCell id="ERGdIT2w2F6xUF8PgBJa-65" value="" style="endArrow=classic;html=1;rounded=0;" parent="1" edge="1">
          <mxGeometry width="50" height="50" relative="1" as="geometry">
            <mxPoint x="420" y="300" as="sourcePoint" />
            <mxPoint x="440" y="300" as="targetPoint" />
          </mxGeometry>
        </mxCell>
        <mxCell id="ERGdIT2w2F6xUF8PgBJa-66" value="&lt;p style=&quot;line-height: 0%;&quot;&gt;==&lt;/p&gt;&lt;div style=&quot;line-height: 0%;&quot;&gt;&lt;font style=&quot;font-size: 9px;&quot;&gt;2bit&lt;/font&gt;&lt;/div&gt;&lt;p&gt;&lt;/p&gt;" style="rounded=1;whiteSpace=wrap;html=1;" parent="1" vertex="1">
          <mxGeometry x="380" y="260" width="40" height="30" as="geometry" />
        </mxCell>
        <mxCell id="ERGdIT2w2F6xUF8PgBJa-67" value="" style="endArrow=classic;html=1;rounded=0;edgeStyle=orthogonalEdgeStyle;exitX=1;exitY=0.5;exitDx=0;exitDy=0;" parent="1" source="ERGdIT2w2F6xUF8PgBJa-253" edge="1">
          <mxGeometry width="50" height="50" relative="1" as="geometry">
            <mxPoint x="360" y="270" as="sourcePoint" />
            <mxPoint x="380" y="269.9" as="targetPoint" />
            <Array as="points">
              <mxPoint x="340" y="370" />
              <mxPoint x="340" y="270" />
            </Array>
          </mxGeometry>
        </mxCell>
        <mxCell id="ERGdIT2w2F6xUF8PgBJa-69" value="" style="endArrow=classic;html=1;rounded=0;" parent="1" edge="1">
          <mxGeometry width="50" height="50" relative="1" as="geometry">
            <mxPoint x="360" y="280" as="sourcePoint" />
            <mxPoint x="380" y="280" as="targetPoint" />
          </mxGeometry>
        </mxCell>
        <mxCell id="ERGdIT2w2F6xUF8PgBJa-71" value="wen[1]" style="text;html=1;align=center;verticalAlign=middle;resizable=0;points=[];autosize=1;strokeColor=none;fillColor=none;" parent="1" vertex="1">
          <mxGeometry x="370" y="284" width="60" height="30" as="geometry" />
        </mxCell>
        <mxCell id="ERGdIT2w2F6xUF8PgBJa-72" value="ren" style="text;html=1;align=center;verticalAlign=middle;resizable=0;points=[];autosize=1;strokeColor=none;fillColor=none;fontColor=#999999;" parent="1" vertex="1">
          <mxGeometry x="433" y="259" width="40" height="30" as="geometry" />
        </mxCell>
        <mxCell id="ERGdIT2w2F6xUF8PgBJa-73" value="rst_n" style="text;html=1;align=center;verticalAlign=middle;resizable=0;points=[];autosize=1;strokeColor=none;fillColor=none;fontColor=#999999;" parent="1" vertex="1">
          <mxGeometry x="433" y="324" width="50" height="30" as="geometry" />
        </mxCell>
        <mxCell id="ERGdIT2w2F6xUF8PgBJa-74" value="wen" style="text;html=1;align=center;verticalAlign=middle;resizable=0;points=[];autosize=1;strokeColor=none;fillColor=none;fontColor=#999999;" parent="1" vertex="1">
          <mxGeometry x="430" y="284" width="50" height="30" as="geometry" />
        </mxCell>
        <mxCell id="ERGdIT2w2F6xUF8PgBJa-75" value="din" style="text;html=1;align=center;verticalAlign=middle;resizable=0;points=[];autosize=1;strokeColor=none;fillColor=none;fontColor=#999999;" parent="1" vertex="1">
          <mxGeometry x="432" y="305" width="40" height="30" as="geometry" />
        </mxCell>
        <mxCell id="ERGdIT2w2F6xUF8PgBJa-76" value="dout" style="text;html=1;align=center;verticalAlign=middle;resizable=0;points=[];autosize=1;strokeColor=none;fillColor=none;fontColor=#999999;" parent="1" vertex="1">
          <mxGeometry x="539" y="293" width="50" height="30" as="geometry" />
        </mxCell>
        <mxCell id="ERGdIT2w2F6xUF8PgBJa-77" style="edgeStyle=orthogonalEdgeStyle;rounded=0;orthogonalLoop=1;jettySize=auto;html=1;exitX=1;exitY=0.5;exitDx=0;exitDy=0;entryX=0.5;entryY=1;entryDx=0;entryDy=0;endArrow=classic;endFill=1;strokeWidth=1;endSize=3;" parent="1" target="ERGdIT2w2F6xUF8PgBJa-59" edge="1">
          <mxGeometry relative="1" as="geometry">
            <mxPoint x="480" y="370" as="sourcePoint" />
            <mxPoint x="510" y="370" as="targetPoint" />
          </mxGeometry>
        </mxCell>
        <mxCell id="ERGdIT2w2F6xUF8PgBJa-78" value="clk" style="text;html=1;align=center;verticalAlign=middle;resizable=0;points=[];autosize=1;strokeColor=none;fillColor=none;" parent="1" vertex="1">
          <mxGeometry x="449" y="354" width="40" height="30" as="geometry" />
        </mxCell>
        <mxCell id="ERGdIT2w2F6xUF8PgBJa-79" value="" style="endArrow=none;html=1;rounded=0;" parent="1" edge="1">
          <mxGeometry width="50" height="50" relative="1" as="geometry">
            <mxPoint x="364" y="285" as="sourcePoint" />
            <mxPoint x="369" y="275" as="targetPoint" />
          </mxGeometry>
        </mxCell>
        <mxCell id="ERGdIT2w2F6xUF8PgBJa-80" value="2" style="text;html=1;align=center;verticalAlign=middle;resizable=0;points=[];autosize=1;strokeColor=none;fillColor=none;fontSize=9;" parent="1" vertex="1">
          <mxGeometry x="350" y="279" width="30" height="20" as="geometry" />
        </mxCell>
        <mxCell id="ERGdIT2w2F6xUF8PgBJa-84" value="" style="group" parent="1" vertex="1" connectable="0">
          <mxGeometry x="410" y="301" width="30" height="24" as="geometry" />
        </mxCell>
        <mxCell id="ERGdIT2w2F6xUF8PgBJa-85" value="" style="endArrow=none;html=1;rounded=0;" parent="ERGdIT2w2F6xUF8PgBJa-84" edge="1">
          <mxGeometry width="50" height="50" relative="1" as="geometry">
            <mxPoint x="14" y="24" as="sourcePoint" />
            <mxPoint x="19" y="14" as="targetPoint" />
          </mxGeometry>
        </mxCell>
        <mxCell id="ERGdIT2w2F6xUF8PgBJa-86" value="8" style="text;html=1;align=center;verticalAlign=middle;resizable=0;points=[];autosize=1;strokeColor=none;fillColor=none;fontSize=9;" parent="ERGdIT2w2F6xUF8PgBJa-84" vertex="1">
          <mxGeometry y="2" width="30" height="20" as="geometry" />
        </mxCell>
        <mxCell id="ERGdIT2w2F6xUF8PgBJa-87" value="error" style="text;html=1;align=center;verticalAlign=middle;resizable=0;points=[];autosize=1;strokeColor=none;fillColor=none;fontColor=#999999;" parent="1" vertex="1">
          <mxGeometry x="539" y="324" width="50" height="30" as="geometry" />
        </mxCell>
        <mxCell id="ERGdIT2w2F6xUF8PgBJa-88" value="rst_n" style="text;html=1;align=center;verticalAlign=middle;resizable=0;points=[];autosize=1;strokeColor=none;fillColor=none;" parent="1" vertex="1">
          <mxGeometry x="378" y="323" width="50" height="30" as="geometry" />
        </mxCell>
        <mxCell id="ERGdIT2w2F6xUF8PgBJa-92" value="&lt;div style=&quot;font-size: 13px; line-height: 140%;&quot;&gt;&lt;b&gt;FIFO_8&lt;/b&gt;&lt;/div&gt;&lt;div style=&quot;line-height: 3.6px;&quot;&gt;&lt;font size=&quot;1&quot;&gt;w/modified&lt;/font&gt;&lt;/div&gt;" style="rounded=1;whiteSpace=wrap;html=1;" parent="1" vertex="1">
          <mxGeometry x="440" y="380" width="140" height="100" as="geometry" />
        </mxCell>
        <mxCell id="ERGdIT2w2F6xUF8PgBJa-93" value="" style="triangle;whiteSpace=wrap;html=1;rotation=-90;" parent="1" vertex="1">
          <mxGeometry x="504.75" y="467" width="11" height="15" as="geometry" />
        </mxCell>
        <mxCell id="ERGdIT2w2F6xUF8PgBJa-94" value="" style="endArrow=classic;html=1;rounded=0;" parent="1" edge="1">
          <mxGeometry width="50" height="50" relative="1" as="geometry">
            <mxPoint x="420" y="440" as="sourcePoint" />
            <mxPoint x="440" y="440" as="targetPoint" />
          </mxGeometry>
        </mxCell>
        <mxCell id="ERGdIT2w2F6xUF8PgBJa-95" value="c" style="text;html=1;align=center;verticalAlign=middle;resizable=0;points=[];autosize=1;strokeColor=none;fillColor=none;" parent="1" vertex="1">
          <mxGeometry x="398" y="424" width="30" height="30" as="geometry" />
        </mxCell>
        <mxCell id="ERGdIT2w2F6xUF8PgBJa-96" value="" style="endArrow=classic;html=1;rounded=0;exitX=1;exitY=0.5;exitDx=0;exitDy=0;exitPerimeter=0;" parent="1" edge="1">
          <mxGeometry width="50" height="50" relative="1" as="geometry">
            <mxPoint x="415" y="395" as="sourcePoint" />
            <mxPoint x="440" y="395" as="targetPoint" />
          </mxGeometry>
        </mxCell>
        <mxCell id="ERGdIT2w2F6xUF8PgBJa-97" value="" style="endArrow=classic;html=1;rounded=0;" parent="1" edge="1">
          <mxGeometry width="50" height="50" relative="1" as="geometry">
            <mxPoint x="420" y="460" as="sourcePoint" />
            <mxPoint x="440" y="460" as="targetPoint" />
          </mxGeometry>
        </mxCell>
        <mxCell id="ERGdIT2w2F6xUF8PgBJa-98" value="" style="endArrow=classic;html=1;rounded=0;" parent="1" edge="1">
          <mxGeometry width="50" height="50" relative="1" as="geometry">
            <mxPoint x="420" y="420" as="sourcePoint" />
            <mxPoint x="440" y="420" as="targetPoint" />
          </mxGeometry>
        </mxCell>
        <mxCell id="ERGdIT2w2F6xUF8PgBJa-99" value="&lt;p style=&quot;line-height: 0%;&quot;&gt;==&lt;/p&gt;&lt;div style=&quot;line-height: 0%;&quot;&gt;&lt;font style=&quot;font-size: 9px;&quot;&gt;2bit&lt;/font&gt;&lt;/div&gt;&lt;p&gt;&lt;/p&gt;" style="rounded=1;whiteSpace=wrap;html=1;" parent="1" vertex="1">
          <mxGeometry x="380" y="380" width="40" height="30" as="geometry" />
        </mxCell>
        <mxCell id="ERGdIT2w2F6xUF8PgBJa-100" value="" style="endArrow=classic;html=1;rounded=0;edgeStyle=orthogonalEdgeStyle;" parent="1" edge="1">
          <mxGeometry width="50" height="50" relative="1" as="geometry">
            <mxPoint x="340" y="370" as="sourcePoint" />
            <mxPoint x="380" y="389.9" as="targetPoint" />
            <Array as="points">
              <mxPoint x="340" y="390" />
            </Array>
          </mxGeometry>
        </mxCell>
        <mxCell id="ERGdIT2w2F6xUF8PgBJa-102" value="" style="endArrow=classic;html=1;rounded=0;" parent="1" edge="1">
          <mxGeometry width="50" height="50" relative="1" as="geometry">
            <mxPoint x="360" y="400" as="sourcePoint" />
            <mxPoint x="380" y="400" as="targetPoint" />
          </mxGeometry>
        </mxCell>
        <mxCell id="ERGdIT2w2F6xUF8PgBJa-104" value="wen[2]" style="text;html=1;align=center;verticalAlign=middle;resizable=0;points=[];autosize=1;strokeColor=none;fillColor=none;" parent="1" vertex="1">
          <mxGeometry x="370" y="404" width="60" height="30" as="geometry" />
        </mxCell>
        <mxCell id="ERGdIT2w2F6xUF8PgBJa-105" value="ren" style="text;html=1;align=center;verticalAlign=middle;resizable=0;points=[];autosize=1;strokeColor=none;fillColor=none;fontColor=#999999;" parent="1" vertex="1">
          <mxGeometry x="433" y="379" width="40" height="30" as="geometry" />
        </mxCell>
        <mxCell id="ERGdIT2w2F6xUF8PgBJa-106" value="rst_n" style="text;html=1;align=center;verticalAlign=middle;resizable=0;points=[];autosize=1;strokeColor=none;fillColor=none;fontColor=#999999;" parent="1" vertex="1">
          <mxGeometry x="433" y="444" width="50" height="30" as="geometry" />
        </mxCell>
        <mxCell id="ERGdIT2w2F6xUF8PgBJa-107" value="wen" style="text;html=1;align=center;verticalAlign=middle;resizable=0;points=[];autosize=1;strokeColor=none;fillColor=none;fontColor=#999999;" parent="1" vertex="1">
          <mxGeometry x="430" y="404" width="50" height="30" as="geometry" />
        </mxCell>
        <mxCell id="ERGdIT2w2F6xUF8PgBJa-108" value="din" style="text;html=1;align=center;verticalAlign=middle;resizable=0;points=[];autosize=1;strokeColor=none;fillColor=none;fontColor=#999999;" parent="1" vertex="1">
          <mxGeometry x="432" y="425" width="40" height="30" as="geometry" />
        </mxCell>
        <mxCell id="ERGdIT2w2F6xUF8PgBJa-109" value="dout" style="text;html=1;align=center;verticalAlign=middle;resizable=0;points=[];autosize=1;strokeColor=none;fillColor=none;fontColor=#999999;" parent="1" vertex="1">
          <mxGeometry x="539" y="413" width="50" height="30" as="geometry" />
        </mxCell>
        <mxCell id="ERGdIT2w2F6xUF8PgBJa-110" style="edgeStyle=orthogonalEdgeStyle;rounded=0;orthogonalLoop=1;jettySize=auto;html=1;exitX=1;exitY=0.5;exitDx=0;exitDy=0;entryX=0.5;entryY=1;entryDx=0;entryDy=0;endArrow=classic;endFill=1;strokeWidth=1;endSize=3;" parent="1" target="ERGdIT2w2F6xUF8PgBJa-92" edge="1">
          <mxGeometry relative="1" as="geometry">
            <mxPoint x="480" y="490" as="sourcePoint" />
            <mxPoint x="510" y="490" as="targetPoint" />
          </mxGeometry>
        </mxCell>
        <mxCell id="ERGdIT2w2F6xUF8PgBJa-111" value="clk" style="text;html=1;align=center;verticalAlign=middle;resizable=0;points=[];autosize=1;strokeColor=none;fillColor=none;" parent="1" vertex="1">
          <mxGeometry x="449" y="474" width="40" height="30" as="geometry" />
        </mxCell>
        <mxCell id="ERGdIT2w2F6xUF8PgBJa-112" value="" style="endArrow=none;html=1;rounded=0;" parent="1" edge="1">
          <mxGeometry width="50" height="50" relative="1" as="geometry">
            <mxPoint x="364" y="405" as="sourcePoint" />
            <mxPoint x="369" y="395" as="targetPoint" />
          </mxGeometry>
        </mxCell>
        <mxCell id="ERGdIT2w2F6xUF8PgBJa-113" value="2" style="text;html=1;align=center;verticalAlign=middle;resizable=0;points=[];autosize=1;strokeColor=none;fillColor=none;fontSize=9;" parent="1" vertex="1">
          <mxGeometry x="350" y="399" width="30" height="20" as="geometry" />
        </mxCell>
        <mxCell id="ERGdIT2w2F6xUF8PgBJa-117" value="" style="group" parent="1" vertex="1" connectable="0">
          <mxGeometry x="410" y="421" width="30" height="24" as="geometry" />
        </mxCell>
        <mxCell id="ERGdIT2w2F6xUF8PgBJa-118" value="" style="endArrow=none;html=1;rounded=0;" parent="ERGdIT2w2F6xUF8PgBJa-117" edge="1">
          <mxGeometry width="50" height="50" relative="1" as="geometry">
            <mxPoint x="14" y="24" as="sourcePoint" />
            <mxPoint x="19" y="14" as="targetPoint" />
          </mxGeometry>
        </mxCell>
        <mxCell id="ERGdIT2w2F6xUF8PgBJa-119" value="8" style="text;html=1;align=center;verticalAlign=middle;resizable=0;points=[];autosize=1;strokeColor=none;fillColor=none;fontSize=9;" parent="ERGdIT2w2F6xUF8PgBJa-117" vertex="1">
          <mxGeometry y="2" width="30" height="20" as="geometry" />
        </mxCell>
        <mxCell id="ERGdIT2w2F6xUF8PgBJa-120" value="" style="group" parent="1" vertex="1" connectable="0">
          <mxGeometry x="579" y="411" width="30" height="24" as="geometry" />
        </mxCell>
        <mxCell id="ERGdIT2w2F6xUF8PgBJa-121" value="" style="endArrow=none;html=1;rounded=0;" parent="ERGdIT2w2F6xUF8PgBJa-120" edge="1">
          <mxGeometry width="50" height="50" relative="1" as="geometry">
            <mxPoint x="14" y="24" as="sourcePoint" />
            <mxPoint x="19" y="14" as="targetPoint" />
          </mxGeometry>
        </mxCell>
        <mxCell id="ERGdIT2w2F6xUF8PgBJa-122" value="8" style="text;html=1;align=center;verticalAlign=middle;resizable=0;points=[];autosize=1;strokeColor=none;fillColor=none;fontSize=9;" parent="ERGdIT2w2F6xUF8PgBJa-120" vertex="1">
          <mxGeometry y="2" width="30" height="20" as="geometry" />
        </mxCell>
        <mxCell id="ERGdIT2w2F6xUF8PgBJa-123" value="error" style="text;html=1;align=center;verticalAlign=middle;resizable=0;points=[];autosize=1;strokeColor=none;fillColor=none;fontColor=#999999;" parent="1" vertex="1">
          <mxGeometry x="539" y="444" width="50" height="30" as="geometry" />
        </mxCell>
        <mxCell id="ERGdIT2w2F6xUF8PgBJa-124" value="rst_n" style="text;html=1;align=center;verticalAlign=middle;resizable=0;points=[];autosize=1;strokeColor=none;fillColor=none;" parent="1" vertex="1">
          <mxGeometry x="378" y="443" width="50" height="30" as="geometry" />
        </mxCell>
        <mxCell id="ERGdIT2w2F6xUF8PgBJa-125" value="&lt;div style=&quot;font-size: 13px; line-height: 140%;&quot;&gt;&lt;b&gt;FIFO_8&lt;/b&gt;&lt;/div&gt;&lt;div style=&quot;line-height: 3.6px;&quot;&gt;&lt;font size=&quot;1&quot;&gt;w/modified&lt;/font&gt;&lt;/div&gt;" style="rounded=1;whiteSpace=wrap;html=1;" parent="1" vertex="1">
          <mxGeometry x="440" y="500" width="140" height="100" as="geometry" />
        </mxCell>
        <mxCell id="ERGdIT2w2F6xUF8PgBJa-126" value="" style="triangle;whiteSpace=wrap;html=1;rotation=-90;" parent="1" vertex="1">
          <mxGeometry x="504.75" y="587" width="11" height="15" as="geometry" />
        </mxCell>
        <mxCell id="ERGdIT2w2F6xUF8PgBJa-127" value="" style="endArrow=classic;html=1;rounded=0;" parent="1" edge="1">
          <mxGeometry width="50" height="50" relative="1" as="geometry">
            <mxPoint x="420" y="560" as="sourcePoint" />
            <mxPoint x="440" y="560" as="targetPoint" />
          </mxGeometry>
        </mxCell>
        <mxCell id="ERGdIT2w2F6xUF8PgBJa-128" value="d" style="text;html=1;align=center;verticalAlign=middle;resizable=0;points=[];autosize=1;strokeColor=none;fillColor=none;" parent="1" vertex="1">
          <mxGeometry x="398" y="544" width="30" height="30" as="geometry" />
        </mxCell>
        <mxCell id="ERGdIT2w2F6xUF8PgBJa-129" value="" style="endArrow=classic;html=1;rounded=0;exitX=1;exitY=0.5;exitDx=0;exitDy=0;exitPerimeter=0;" parent="1" edge="1">
          <mxGeometry width="50" height="50" relative="1" as="geometry">
            <mxPoint x="415" y="515" as="sourcePoint" />
            <mxPoint x="440" y="515" as="targetPoint" />
          </mxGeometry>
        </mxCell>
        <mxCell id="ERGdIT2w2F6xUF8PgBJa-130" value="" style="endArrow=classic;html=1;rounded=0;" parent="1" edge="1">
          <mxGeometry width="50" height="50" relative="1" as="geometry">
            <mxPoint x="420" y="580" as="sourcePoint" />
            <mxPoint x="440" y="580" as="targetPoint" />
          </mxGeometry>
        </mxCell>
        <mxCell id="ERGdIT2w2F6xUF8PgBJa-131" value="" style="endArrow=classic;html=1;rounded=0;" parent="1" edge="1">
          <mxGeometry width="50" height="50" relative="1" as="geometry">
            <mxPoint x="420" y="540" as="sourcePoint" />
            <mxPoint x="440" y="540" as="targetPoint" />
          </mxGeometry>
        </mxCell>
        <mxCell id="ERGdIT2w2F6xUF8PgBJa-132" value="&lt;p style=&quot;line-height: 0%;&quot;&gt;==&lt;/p&gt;&lt;div style=&quot;line-height: 0%;&quot;&gt;&lt;font style=&quot;font-size: 9px;&quot;&gt;2bit&lt;/font&gt;&lt;/div&gt;&lt;p&gt;&lt;/p&gt;" style="rounded=1;whiteSpace=wrap;html=1;" parent="1" vertex="1">
          <mxGeometry x="380" y="500" width="40" height="30" as="geometry" />
        </mxCell>
        <mxCell id="ERGdIT2w2F6xUF8PgBJa-133" value="" style="endArrow=classic;html=1;rounded=0;edgeStyle=orthogonalEdgeStyle;" parent="1" edge="1">
          <mxGeometry width="50" height="50" relative="1" as="geometry">
            <mxPoint x="340" y="390" as="sourcePoint" />
            <mxPoint x="380" y="509.9" as="targetPoint" />
            <Array as="points">
              <mxPoint x="340" y="510" />
            </Array>
          </mxGeometry>
        </mxCell>
        <mxCell id="ERGdIT2w2F6xUF8PgBJa-135" value="" style="endArrow=classic;html=1;rounded=0;" parent="1" edge="1">
          <mxGeometry width="50" height="50" relative="1" as="geometry">
            <mxPoint x="360" y="520" as="sourcePoint" />
            <mxPoint x="380" y="520" as="targetPoint" />
          </mxGeometry>
        </mxCell>
        <mxCell id="ERGdIT2w2F6xUF8PgBJa-137" value="wen[3]" style="text;html=1;align=center;verticalAlign=middle;resizable=0;points=[];autosize=1;strokeColor=none;fillColor=none;" parent="1" vertex="1">
          <mxGeometry x="370" y="524" width="60" height="30" as="geometry" />
        </mxCell>
        <mxCell id="ERGdIT2w2F6xUF8PgBJa-138" value="ren" style="text;html=1;align=center;verticalAlign=middle;resizable=0;points=[];autosize=1;strokeColor=none;fillColor=none;fontColor=#999999;" parent="1" vertex="1">
          <mxGeometry x="433" y="499" width="40" height="30" as="geometry" />
        </mxCell>
        <mxCell id="ERGdIT2w2F6xUF8PgBJa-139" value="rst_n" style="text;html=1;align=center;verticalAlign=middle;resizable=0;points=[];autosize=1;strokeColor=none;fillColor=none;fontColor=#999999;" parent="1" vertex="1">
          <mxGeometry x="433" y="564" width="50" height="30" as="geometry" />
        </mxCell>
        <mxCell id="ERGdIT2w2F6xUF8PgBJa-140" value="wen" style="text;html=1;align=center;verticalAlign=middle;resizable=0;points=[];autosize=1;strokeColor=none;fillColor=none;fontColor=#999999;" parent="1" vertex="1">
          <mxGeometry x="430" y="524" width="50" height="30" as="geometry" />
        </mxCell>
        <mxCell id="ERGdIT2w2F6xUF8PgBJa-141" value="din" style="text;html=1;align=center;verticalAlign=middle;resizable=0;points=[];autosize=1;strokeColor=none;fillColor=none;fontColor=#999999;" parent="1" vertex="1">
          <mxGeometry x="432" y="545" width="40" height="30" as="geometry" />
        </mxCell>
        <mxCell id="ERGdIT2w2F6xUF8PgBJa-142" value="dout" style="text;html=1;align=center;verticalAlign=middle;resizable=0;points=[];autosize=1;strokeColor=none;fillColor=none;fontColor=#999999;" parent="1" vertex="1">
          <mxGeometry x="539" y="533" width="50" height="30" as="geometry" />
        </mxCell>
        <mxCell id="ERGdIT2w2F6xUF8PgBJa-143" style="edgeStyle=orthogonalEdgeStyle;rounded=0;orthogonalLoop=1;jettySize=auto;html=1;exitX=1;exitY=0.5;exitDx=0;exitDy=0;entryX=0.5;entryY=1;entryDx=0;entryDy=0;endArrow=classic;endFill=1;strokeWidth=1;endSize=3;" parent="1" target="ERGdIT2w2F6xUF8PgBJa-125" edge="1">
          <mxGeometry relative="1" as="geometry">
            <mxPoint x="480" y="610" as="sourcePoint" />
            <mxPoint x="510" y="610" as="targetPoint" />
          </mxGeometry>
        </mxCell>
        <mxCell id="ERGdIT2w2F6xUF8PgBJa-144" value="clk" style="text;html=1;align=center;verticalAlign=middle;resizable=0;points=[];autosize=1;strokeColor=none;fillColor=none;" parent="1" vertex="1">
          <mxGeometry x="449" y="594" width="40" height="30" as="geometry" />
        </mxCell>
        <mxCell id="ERGdIT2w2F6xUF8PgBJa-145" value="" style="endArrow=none;html=1;rounded=0;" parent="1" edge="1">
          <mxGeometry width="50" height="50" relative="1" as="geometry">
            <mxPoint x="364" y="525" as="sourcePoint" />
            <mxPoint x="369" y="515" as="targetPoint" />
          </mxGeometry>
        </mxCell>
        <mxCell id="ERGdIT2w2F6xUF8PgBJa-150" value="" style="group" parent="1" vertex="1" connectable="0">
          <mxGeometry x="410" y="541" width="30" height="24" as="geometry" />
        </mxCell>
        <mxCell id="ERGdIT2w2F6xUF8PgBJa-151" value="" style="endArrow=none;html=1;rounded=0;" parent="ERGdIT2w2F6xUF8PgBJa-150" edge="1">
          <mxGeometry width="50" height="50" relative="1" as="geometry">
            <mxPoint x="14" y="24" as="sourcePoint" />
            <mxPoint x="19" y="14" as="targetPoint" />
          </mxGeometry>
        </mxCell>
        <mxCell id="ERGdIT2w2F6xUF8PgBJa-152" value="8" style="text;html=1;align=center;verticalAlign=middle;resizable=0;points=[];autosize=1;strokeColor=none;fillColor=none;fontSize=9;" parent="ERGdIT2w2F6xUF8PgBJa-150" vertex="1">
          <mxGeometry y="2" width="30" height="20" as="geometry" />
        </mxCell>
        <mxCell id="ERGdIT2w2F6xUF8PgBJa-153" value="error" style="text;html=1;align=center;verticalAlign=middle;resizable=0;points=[];autosize=1;strokeColor=none;fillColor=none;fontColor=#999999;" parent="1" vertex="1">
          <mxGeometry x="539" y="564" width="50" height="30" as="geometry" />
        </mxCell>
        <mxCell id="ERGdIT2w2F6xUF8PgBJa-154" value="rst_n" style="text;html=1;align=center;verticalAlign=middle;resizable=0;points=[];autosize=1;strokeColor=none;fillColor=none;" parent="1" vertex="1">
          <mxGeometry x="378" y="563" width="50" height="30" as="geometry" />
        </mxCell>
        <mxCell id="ERGdIT2w2F6xUF8PgBJa-158" value="" style="group" parent="1" vertex="1" connectable="0">
          <mxGeometry x="745" y="487" width="30" height="24" as="geometry" />
        </mxCell>
        <mxCell id="ERGdIT2w2F6xUF8PgBJa-159" value="" style="endArrow=none;html=1;rounded=0;" parent="ERGdIT2w2F6xUF8PgBJa-158" edge="1">
          <mxGeometry width="50" height="50" relative="1" as="geometry">
            <mxPoint x="14" y="24" as="sourcePoint" />
            <mxPoint x="19" y="14" as="targetPoint" />
          </mxGeometry>
        </mxCell>
        <mxCell id="ERGdIT2w2F6xUF8PgBJa-160" value="2" style="text;html=1;align=center;verticalAlign=middle;resizable=0;points=[];autosize=1;strokeColor=none;fillColor=none;fontSize=9;" parent="ERGdIT2w2F6xUF8PgBJa-158" vertex="1">
          <mxGeometry width="30" height="20" as="geometry" />
        </mxCell>
        <mxCell id="ERGdIT2w2F6xUF8PgBJa-161" value="" style="group" parent="1" vertex="1" connectable="0">
          <mxGeometry x="579" y="171" width="30" height="24" as="geometry" />
        </mxCell>
        <mxCell id="ERGdIT2w2F6xUF8PgBJa-162" value="" style="endArrow=none;html=1;rounded=0;" parent="ERGdIT2w2F6xUF8PgBJa-161" edge="1">
          <mxGeometry width="50" height="50" relative="1" as="geometry">
            <mxPoint x="14" y="24" as="sourcePoint" />
            <mxPoint x="19" y="14" as="targetPoint" />
          </mxGeometry>
        </mxCell>
        <mxCell id="ERGdIT2w2F6xUF8PgBJa-163" value="8" style="text;html=1;align=center;verticalAlign=middle;resizable=0;points=[];autosize=1;strokeColor=none;fillColor=none;fontSize=9;" parent="ERGdIT2w2F6xUF8PgBJa-161" vertex="1">
          <mxGeometry y="2" width="30" height="20" as="geometry" />
        </mxCell>
        <mxCell id="ERGdIT2w2F6xUF8PgBJa-164" value="" style="endArrow=classic;html=1;rounded=0;exitX=1;exitY=0.5;exitDx=0;exitDy=0;exitPerimeter=0;edgeStyle=orthogonalEdgeStyle;entryX=0.242;entryY=1;entryDx=0;entryDy=0;entryPerimeter=0;" parent="1" target="ERGdIT2w2F6xUF8PgBJa-188" edge="1">
          <mxGeometry width="50" height="50" relative="1" as="geometry">
            <mxPoint x="580" y="190" as="sourcePoint" />
            <mxPoint x="670" y="340" as="targetPoint" />
          </mxGeometry>
        </mxCell>
        <mxCell id="ERGdIT2w2F6xUF8PgBJa-168" value="" style="endArrow=classic;html=1;rounded=0;exitX=1;exitY=0.5;exitDx=0;exitDy=0;exitPerimeter=0;edgeStyle=orthogonalEdgeStyle;" parent="1" edge="1">
          <mxGeometry width="50" height="50" relative="1" as="geometry">
            <mxPoint x="580" y="310" as="sourcePoint" />
            <mxPoint x="680" y="360" as="targetPoint" />
            <Array as="points">
              <mxPoint x="610" y="310" />
              <mxPoint x="610" y="360" />
            </Array>
          </mxGeometry>
        </mxCell>
        <mxCell id="ERGdIT2w2F6xUF8PgBJa-169" value="" style="group" parent="1" vertex="1" connectable="0">
          <mxGeometry x="579" y="411" width="30" height="24" as="geometry" />
        </mxCell>
        <mxCell id="ERGdIT2w2F6xUF8PgBJa-170" value="" style="endArrow=none;html=1;rounded=0;" parent="ERGdIT2w2F6xUF8PgBJa-169" edge="1">
          <mxGeometry width="50" height="50" relative="1" as="geometry">
            <mxPoint x="14" y="24" as="sourcePoint" />
            <mxPoint x="19" y="14" as="targetPoint" />
          </mxGeometry>
        </mxCell>
        <mxCell id="ERGdIT2w2F6xUF8PgBJa-171" value="8" style="text;html=1;align=center;verticalAlign=middle;resizable=0;points=[];autosize=1;strokeColor=none;fillColor=none;fontSize=9;" parent="ERGdIT2w2F6xUF8PgBJa-169" vertex="1">
          <mxGeometry y="2" width="30" height="20" as="geometry" />
        </mxCell>
        <mxCell id="ERGdIT2w2F6xUF8PgBJa-172" value="" style="endArrow=classic;html=1;rounded=0;exitX=1;exitY=0.5;exitDx=0;exitDy=0;exitPerimeter=0;edgeStyle=orthogonalEdgeStyle;" parent="1" edge="1">
          <mxGeometry width="50" height="50" relative="1" as="geometry">
            <mxPoint x="580" y="430" as="sourcePoint" />
            <mxPoint x="680" y="380" as="targetPoint" />
            <Array as="points">
              <mxPoint x="610" y="430" />
              <mxPoint x="610" y="380" />
            </Array>
          </mxGeometry>
        </mxCell>
        <mxCell id="ERGdIT2w2F6xUF8PgBJa-176" value="" style="endArrow=classic;html=1;rounded=0;exitX=1;exitY=0.5;exitDx=0;exitDy=0;exitPerimeter=0;edgeStyle=orthogonalEdgeStyle;entryX=0.742;entryY=1;entryDx=0;entryDy=0;entryPerimeter=0;" parent="1" target="ERGdIT2w2F6xUF8PgBJa-188" edge="1">
          <mxGeometry width="50" height="50" relative="1" as="geometry">
            <mxPoint x="580" y="550" as="sourcePoint" />
            <mxPoint x="670" y="400" as="targetPoint" />
          </mxGeometry>
        </mxCell>
        <mxCell id="ERGdIT2w2F6xUF8PgBJa-177" style="edgeStyle=orthogonalEdgeStyle;rounded=0;orthogonalLoop=1;jettySize=auto;html=1;exitX=1;exitY=0.5;exitDx=0;exitDy=0;entryX=1;entryY=0.5;entryDx=0;entryDy=0;" parent="1" source="ERGdIT2w2F6xUF8PgBJa-178" target="ERGdIT2w2F6xUF8PgBJa-188" edge="1">
          <mxGeometry relative="1" as="geometry">
            <mxPoint x="700" y="460" as="targetPoint" />
            <Array as="points">
              <mxPoint x="770" y="506" />
              <mxPoint x="770" y="460" />
              <mxPoint x="705" y="460" />
            </Array>
          </mxGeometry>
        </mxCell>
        <mxCell id="ERGdIT2w2F6xUF8PgBJa-178" value="&lt;p style=&quot;line-height: 0%;&quot;&gt;&lt;b&gt;DFF&lt;/b&gt;&lt;/p&gt;&lt;p style=&quot;line-height: 0%;&quot;&gt;&lt;font style=&quot;font-size: 10px;&quot;&gt;2bit&lt;/font&gt;&lt;/p&gt;&lt;p&gt;&lt;/p&gt;" style="rounded=1;whiteSpace=wrap;html=1;" parent="1" vertex="1">
          <mxGeometry x="690" y="476" width="60" height="60" as="geometry" />
        </mxCell>
        <mxCell id="ERGdIT2w2F6xUF8PgBJa-179" value="" style="triangle;whiteSpace=wrap;html=1;rotation=0;" parent="1" vertex="1">
          <mxGeometry x="690" y="508" width="11" height="15" as="geometry" />
        </mxCell>
        <mxCell id="ERGdIT2w2F6xUF8PgBJa-180" value="" style="endArrow=classic;html=1;rounded=0;endSize=3;" parent="1" edge="1">
          <mxGeometry width="50" height="50" relative="1" as="geometry">
            <mxPoint x="670" y="516" as="sourcePoint" />
            <mxPoint x="690" y="516" as="targetPoint" />
          </mxGeometry>
        </mxCell>
        <mxCell id="ERGdIT2w2F6xUF8PgBJa-181" value="clk" style="text;html=1;align=center;verticalAlign=middle;resizable=0;points=[];autosize=1;strokeColor=none;fillColor=none;" parent="1" vertex="1">
          <mxGeometry x="640" y="500" width="40" height="30" as="geometry" />
        </mxCell>
        <mxCell id="ERGdIT2w2F6xUF8PgBJa-182" value="" style="endArrow=classic;html=1;rounded=0;edgeStyle=orthogonalEdgeStyle;" parent="1" edge="1">
          <mxGeometry width="50" height="50" relative="1" as="geometry">
            <mxPoint x="340" y="510" as="sourcePoint" />
            <mxPoint x="690" y="496" as="targetPoint" />
            <Array as="points">
              <mxPoint x="340" y="620" />
              <mxPoint x="650" y="620" />
              <mxPoint x="650" y="496" />
            </Array>
          </mxGeometry>
        </mxCell>
        <mxCell id="ERGdIT2w2F6xUF8PgBJa-184" value="" style="group" parent="1" vertex="1" connectable="0">
          <mxGeometry x="313" y="351" width="30" height="24" as="geometry" />
        </mxCell>
        <mxCell id="ERGdIT2w2F6xUF8PgBJa-185" value="" style="endArrow=none;html=1;rounded=0;" parent="ERGdIT2w2F6xUF8PgBJa-184" edge="1">
          <mxGeometry width="50" height="50" relative="1" as="geometry">
            <mxPoint x="14" y="24" as="sourcePoint" />
            <mxPoint x="19" y="14" as="targetPoint" />
          </mxGeometry>
        </mxCell>
        <mxCell id="ERGdIT2w2F6xUF8PgBJa-186" value="2" style="text;html=1;align=center;verticalAlign=middle;resizable=0;points=[];autosize=1;strokeColor=none;fillColor=none;fontSize=9;" parent="ERGdIT2w2F6xUF8PgBJa-184" vertex="1">
          <mxGeometry width="30" height="20" as="geometry" />
        </mxCell>
        <mxCell id="ERGdIT2w2F6xUF8PgBJa-187" style="edgeStyle=orthogonalEdgeStyle;rounded=0;orthogonalLoop=1;jettySize=auto;html=1;" parent="1" edge="1">
          <mxGeometry relative="1" as="geometry">
            <mxPoint x="780" y="370" as="targetPoint" />
            <mxPoint x="730" y="370" as="sourcePoint" />
            <Array as="points">
              <mxPoint x="750" y="370" />
              <mxPoint x="750" y="370" />
            </Array>
          </mxGeometry>
        </mxCell>
        <mxCell id="ERGdIT2w2F6xUF8PgBJa-188" value="" style="shape=trapezoid;perimeter=trapezoidPerimeter;whiteSpace=wrap;html=1;fixedSize=1;rotation=90;" parent="1" vertex="1">
          <mxGeometry x="645" y="345" width="120" height="50" as="geometry" />
        </mxCell>
        <mxCell id="ERGdIT2w2F6xUF8PgBJa-189" value="D" style="text;html=1;align=center;verticalAlign=middle;resizable=0;points=[];autosize=1;strokeColor=none;fillColor=none;fontColor=#999999;" parent="1" vertex="1">
          <mxGeometry x="682.5" y="481" width="30" height="30" as="geometry" />
        </mxCell>
        <mxCell id="ERGdIT2w2F6xUF8PgBJa-190" value="Q" style="text;html=1;align=center;verticalAlign=middle;resizable=0;points=[];autosize=1;strokeColor=none;fillColor=none;fontColor=#999999;" parent="1" vertex="1">
          <mxGeometry x="727" y="491" width="30" height="30" as="geometry" />
        </mxCell>
        <mxCell id="ERGdIT2w2F6xUF8PgBJa-192" value="" style="group" parent="1" vertex="1" connectable="0">
          <mxGeometry x="739" y="351" width="30" height="24" as="geometry" />
        </mxCell>
        <mxCell id="ERGdIT2w2F6xUF8PgBJa-193" value="" style="endArrow=none;html=1;rounded=0;" parent="ERGdIT2w2F6xUF8PgBJa-192" edge="1">
          <mxGeometry width="50" height="50" relative="1" as="geometry">
            <mxPoint x="14" y="24" as="sourcePoint" />
            <mxPoint x="19" y="14" as="targetPoint" />
          </mxGeometry>
        </mxCell>
        <mxCell id="ERGdIT2w2F6xUF8PgBJa-194" value="8" style="text;html=1;align=center;verticalAlign=middle;resizable=0;points=[];autosize=1;strokeColor=none;fillColor=none;fontSize=9;" parent="ERGdIT2w2F6xUF8PgBJa-192" vertex="1">
          <mxGeometry y="2" width="30" height="20" as="geometry" />
        </mxCell>
        <mxCell id="ERGdIT2w2F6xUF8PgBJa-195" value="0" style="text;html=1;align=center;verticalAlign=middle;resizable=0;points=[];autosize=1;strokeColor=none;fillColor=none;fontColor=#999999;fontSize=10;" parent="1" vertex="1">
          <mxGeometry x="673" y="325" width="30" height="30" as="geometry" />
        </mxCell>
        <mxCell id="ERGdIT2w2F6xUF8PgBJa-196" value="1" style="text;html=1;align=center;verticalAlign=middle;resizable=0;points=[];autosize=1;strokeColor=none;fillColor=none;fontColor=#999999;fontSize=10;" parent="1" vertex="1">
          <mxGeometry x="673" y="345" width="30" height="30" as="geometry" />
        </mxCell>
        <mxCell id="ERGdIT2w2F6xUF8PgBJa-197" value="2" style="text;html=1;align=center;verticalAlign=middle;resizable=0;points=[];autosize=1;strokeColor=none;fillColor=none;fontColor=#999999;fontSize=10;" parent="1" vertex="1">
          <mxGeometry x="673" y="364" width="30" height="30" as="geometry" />
        </mxCell>
        <mxCell id="ERGdIT2w2F6xUF8PgBJa-198" value="3" style="text;html=1;align=center;verticalAlign=middle;resizable=0;points=[];autosize=1;strokeColor=none;fillColor=none;fontColor=#999999;fontSize=10;" parent="1" vertex="1">
          <mxGeometry x="673" y="384" width="30" height="30" as="geometry" />
        </mxCell>
        <mxCell id="ERGdIT2w2F6xUF8PgBJa-199" value="&lt;b&gt;MUX&lt;/b&gt;&lt;div style=&quot;font-size: 8px;&quot;&gt;&lt;font style=&quot;font-size: 8px;&quot;&gt;8bit-out&lt;/font&gt;&lt;/div&gt;" style="text;html=1;align=center;verticalAlign=middle;resizable=0;points=[];autosize=1;strokeColor=none;fillColor=none;" parent="1" vertex="1">
          <mxGeometry x="685.5" y="351" width="50" height="40" as="geometry" />
        </mxCell>
        <mxCell id="ERGdIT2w2F6xUF8PgBJa-200" value="cnt_delay" style="text;html=1;align=center;verticalAlign=middle;resizable=0;points=[];autosize=1;strokeColor=none;fillColor=none;fontColor=#999999;" parent="1" vertex="1">
          <mxGeometry x="720" y="437" width="70" height="30" as="geometry" />
        </mxCell>
        <mxCell id="ERGdIT2w2F6xUF8PgBJa-201" value="" style="shape=trapezoid;perimeter=trapezoidPerimeter;whiteSpace=wrap;html=1;fixedSize=1;rotation=90;" parent="1" vertex="1">
          <mxGeometry x="760" y="330" width="80" height="40" as="geometry" />
        </mxCell>
        <mxCell id="ERGdIT2w2F6xUF8PgBJa-202" value="&lt;b&gt;MUX&lt;/b&gt;&lt;div style=&quot;font-size: 8px;&quot;&gt;&lt;font style=&quot;font-size: 8px;&quot;&gt;8bit-out&lt;/font&gt;&lt;/div&gt;" style="text;html=1;align=center;verticalAlign=middle;resizable=0;points=[];autosize=1;strokeColor=none;fillColor=none;" parent="1" vertex="1">
          <mxGeometry x="775" y="330" width="50" height="40" as="geometry" />
        </mxCell>
        <mxCell id="ERGdIT2w2F6xUF8PgBJa-203" value="" style="endArrow=classic;html=1;rounded=0;" parent="1" edge="1">
          <mxGeometry width="50" height="50" relative="1" as="geometry">
            <mxPoint x="760" y="330" as="sourcePoint" />
            <mxPoint x="780" y="330" as="targetPoint" />
          </mxGeometry>
        </mxCell>
        <mxCell id="ERGdIT2w2F6xUF8PgBJa-204" value="0" style="text;html=1;align=center;verticalAlign=middle;resizable=0;points=[];autosize=1;strokeColor=none;fillColor=none;" parent="1" vertex="1">
          <mxGeometry x="738" y="314" width="30" height="30" as="geometry" />
        </mxCell>
        <mxCell id="ERGdIT2w2F6xUF8PgBJa-206" value="" style="group" parent="1" vertex="1" connectable="0">
          <mxGeometry x="750" y="311" width="30" height="24" as="geometry" />
        </mxCell>
        <mxCell id="ERGdIT2w2F6xUF8PgBJa-207" value="" style="endArrow=none;html=1;rounded=0;" parent="ERGdIT2w2F6xUF8PgBJa-206" edge="1">
          <mxGeometry width="50" height="50" relative="1" as="geometry">
            <mxPoint x="14" y="24" as="sourcePoint" />
            <mxPoint x="19" y="14" as="targetPoint" />
          </mxGeometry>
        </mxCell>
        <mxCell id="ERGdIT2w2F6xUF8PgBJa-208" value="8" style="text;html=1;align=center;verticalAlign=middle;resizable=0;points=[];autosize=1;strokeColor=none;fillColor=none;fontSize=9;" parent="ERGdIT2w2F6xUF8PgBJa-206" vertex="1">
          <mxGeometry y="2" width="30" height="20" as="geometry" />
        </mxCell>
        <mxCell id="ERGdIT2w2F6xUF8PgBJa-209" value="0" style="text;html=1;align=center;verticalAlign=middle;resizable=0;points=[];autosize=1;strokeColor=none;fillColor=none;fontColor=#999999;fontSize=10;" parent="1" vertex="1">
          <mxGeometry x="771" y="316" width="30" height="30" as="geometry" />
        </mxCell>
        <mxCell id="ERGdIT2w2F6xUF8PgBJa-210" value="1" style="text;html=1;align=center;verticalAlign=middle;resizable=0;points=[];autosize=1;strokeColor=none;fillColor=none;fontColor=#999999;fontSize=10;" parent="1" vertex="1">
          <mxGeometry x="771" y="355" width="30" height="30" as="geometry" />
        </mxCell>
        <mxCell id="ERGdIT2w2F6xUF8PgBJa-214" value="&lt;p style=&quot;line-height: 0%;&quot;&gt;&lt;b&gt;DFF&lt;/b&gt;&lt;/p&gt;&lt;p&gt;&lt;/p&gt;" style="rounded=1;whiteSpace=wrap;html=1;" parent="1" vertex="1">
          <mxGeometry x="680" y="130" width="60" height="40" as="geometry" />
        </mxCell>
        <mxCell id="ERGdIT2w2F6xUF8PgBJa-215" value="" style="triangle;whiteSpace=wrap;html=1;rotation=0;" parent="1" vertex="1">
          <mxGeometry x="680" y="151" width="11" height="15" as="geometry" />
        </mxCell>
        <mxCell id="ERGdIT2w2F6xUF8PgBJa-216" value="" style="endArrow=classic;html=1;rounded=0;endSize=3;" parent="1" edge="1">
          <mxGeometry width="50" height="50" relative="1" as="geometry">
            <mxPoint x="660" y="159" as="sourcePoint" />
            <mxPoint x="680" y="159" as="targetPoint" />
          </mxGeometry>
        </mxCell>
        <mxCell id="ERGdIT2w2F6xUF8PgBJa-217" value="clk" style="text;html=1;align=center;verticalAlign=middle;resizable=0;points=[];autosize=1;strokeColor=none;fillColor=none;" parent="1" vertex="1">
          <mxGeometry x="630" y="143" width="40" height="30" as="geometry" />
        </mxCell>
        <mxCell id="ERGdIT2w2F6xUF8PgBJa-218" value="" style="endArrow=classic;html=1;rounded=0;" parent="1" edge="1">
          <mxGeometry width="50" height="50" relative="1" as="geometry">
            <mxPoint x="660" y="139" as="sourcePoint" />
            <mxPoint x="680" y="139" as="targetPoint" />
          </mxGeometry>
        </mxCell>
        <mxCell id="ERGdIT2w2F6xUF8PgBJa-219" value="rst_n" style="text;html=1;align=center;verticalAlign=middle;resizable=0;points=[];autosize=1;strokeColor=none;fillColor=none;" parent="1" vertex="1">
          <mxGeometry x="620" y="123" width="50" height="30" as="geometry" />
        </mxCell>
        <mxCell id="ERGdIT2w2F6xUF8PgBJa-223" value="D" style="text;html=1;align=center;verticalAlign=middle;resizable=0;points=[];autosize=1;strokeColor=none;fillColor=none;fontColor=#999999;" parent="1" vertex="1">
          <mxGeometry x="672.5" y="124" width="30" height="30" as="geometry" />
        </mxCell>
        <mxCell id="ERGdIT2w2F6xUF8PgBJa-224" value="Q" style="text;html=1;align=center;verticalAlign=middle;resizable=0;points=[];autosize=1;strokeColor=none;fillColor=none;fontColor=#999999;" parent="1" vertex="1">
          <mxGeometry x="717" y="134" width="30" height="30" as="geometry" />
        </mxCell>
        <mxCell id="ERGdIT2w2F6xUF8PgBJa-226" value="" style="shape=trapezoid;perimeter=trapezoidPerimeter;whiteSpace=wrap;html=1;fixedSize=1;rotation=90;" parent="1" vertex="1">
          <mxGeometry x="720" y="190" width="80" height="40" as="geometry" />
        </mxCell>
        <mxCell id="ERGdIT2w2F6xUF8PgBJa-227" value="&lt;b&gt;MUX&lt;/b&gt;" style="text;html=1;align=center;verticalAlign=middle;resizable=0;points=[];autosize=1;strokeColor=none;fillColor=none;" parent="1" vertex="1">
          <mxGeometry x="735" y="195" width="50" height="30" as="geometry" />
        </mxCell>
        <mxCell id="ERGdIT2w2F6xUF8PgBJa-228" value="" style="endArrow=classic;html=1;rounded=0;" parent="1" edge="1">
          <mxGeometry width="50" height="50" relative="1" as="geometry">
            <mxPoint x="720" y="190" as="sourcePoint" />
            <mxPoint x="740" y="190" as="targetPoint" />
          </mxGeometry>
        </mxCell>
        <mxCell id="ERGdIT2w2F6xUF8PgBJa-232" value="0" style="text;html=1;align=center;verticalAlign=middle;resizable=0;points=[];autosize=1;strokeColor=none;fillColor=none;fontColor=#999999;fontSize=10;" parent="1" vertex="1">
          <mxGeometry x="731" y="176" width="30" height="30" as="geometry" />
        </mxCell>
        <mxCell id="ERGdIT2w2F6xUF8PgBJa-233" value="1" style="text;html=1;align=center;verticalAlign=middle;resizable=0;points=[];autosize=1;strokeColor=none;fillColor=none;fontColor=#999999;fontSize=10;" parent="1" vertex="1">
          <mxGeometry x="731" y="215" width="30" height="30" as="geometry" />
        </mxCell>
        <mxCell id="ERGdIT2w2F6xUF8PgBJa-236" style="edgeStyle=orthogonalEdgeStyle;rounded=0;orthogonalLoop=1;jettySize=auto;html=1;exitX=1;exitY=0.5;exitDx=0;exitDy=0;exitPerimeter=0;fillColor=#fa6800;strokeColor=#C73500;" parent="1" source="ERGdIT2w2F6xUF8PgBJa-234" edge="1">
          <mxGeometry relative="1" as="geometry">
            <mxPoint x="740" y="230" as="targetPoint" />
          </mxGeometry>
        </mxCell>
        <mxCell id="ERGdIT2w2F6xUF8PgBJa-234" value="" style="verticalLabelPosition=bottom;shadow=0;dashed=0;align=center;html=1;verticalAlign=top;shape=mxgraph.electrical.logic_gates.logic_gate;operation=or;negating=1;negSize=0.15;numInputs=4;fillColor=none;fontColor=#000000;strokeColor=#C73500;" parent="1" vertex="1">
          <mxGeometry x="660" y="210" width="45" height="40" as="geometry" />
        </mxCell>
        <mxCell id="ERGdIT2w2F6xUF8PgBJa-235" value="0" style="text;html=1;align=center;verticalAlign=middle;resizable=0;points=[];autosize=1;strokeColor=none;fillColor=none;" parent="1" vertex="1">
          <mxGeometry x="698" y="175" width="30" height="30" as="geometry" />
        </mxCell>
        <mxCell id="ERGdIT2w2F6xUF8PgBJa-238" value="" style="endArrow=classic;html=1;rounded=0;fillColor=#fa6800;strokeColor=#C73500;endSize=3;edgeStyle=orthogonalEdgeStyle;entryX=0;entryY=0.125;entryDx=0;entryDy=0;entryPerimeter=0;" parent="1" target="ERGdIT2w2F6xUF8PgBJa-234" edge="1">
          <mxGeometry width="50" height="50" relative="1" as="geometry">
            <mxPoint x="580" y="220" as="sourcePoint" />
            <mxPoint x="650" y="260" as="targetPoint" />
            <Array as="points">
              <mxPoint x="600" y="220" />
              <mxPoint x="600" y="215" />
            </Array>
          </mxGeometry>
        </mxCell>
        <mxCell id="ERGdIT2w2F6xUF8PgBJa-239" value="" style="endArrow=classic;html=1;rounded=0;fillColor=#fa6800;strokeColor=#C73500;endSize=3;edgeStyle=orthogonalEdgeStyle;entryX=0;entryY=0.125;entryDx=0;entryDy=0;entryPerimeter=0;" parent="1" edge="1">
          <mxGeometry width="50" height="50" relative="1" as="geometry">
            <mxPoint x="580" y="340" as="sourcePoint" />
            <mxPoint x="660" y="225" as="targetPoint" />
            <Array as="points">
              <mxPoint x="600" y="340" />
              <mxPoint x="600" y="225" />
            </Array>
          </mxGeometry>
        </mxCell>
        <mxCell id="ERGdIT2w2F6xUF8PgBJa-240" value="" style="endArrow=classic;html=1;rounded=0;fillColor=#fa6800;strokeColor=#C73500;endSize=3;edgeStyle=orthogonalEdgeStyle;entryX=0;entryY=0.625;entryDx=0;entryDy=0;entryPerimeter=0;" parent="1" target="ERGdIT2w2F6xUF8PgBJa-234" edge="1">
          <mxGeometry width="50" height="50" relative="1" as="geometry">
            <mxPoint x="580" y="460" as="sourcePoint" />
            <mxPoint x="660" y="345" as="targetPoint" />
            <Array as="points">
              <mxPoint x="620" y="460" />
              <mxPoint x="620" y="235" />
            </Array>
          </mxGeometry>
        </mxCell>
        <mxCell id="ERGdIT2w2F6xUF8PgBJa-241" value="" style="endArrow=classic;html=1;rounded=0;fillColor=#fa6800;strokeColor=#C73500;endSize=3;edgeStyle=orthogonalEdgeStyle;entryX=0;entryY=0.875;entryDx=0;entryDy=0;entryPerimeter=0;" parent="1" target="ERGdIT2w2F6xUF8PgBJa-234" edge="1">
          <mxGeometry width="50" height="50" relative="1" as="geometry">
            <mxPoint x="580" y="580" as="sourcePoint" />
            <mxPoint x="660" y="355" as="targetPoint" />
            <Array as="points">
              <mxPoint x="640" y="580" />
              <mxPoint x="640" y="245" />
            </Array>
          </mxGeometry>
        </mxCell>
        <mxCell id="ERGdIT2w2F6xUF8PgBJa-242" value="" style="endArrow=classic;html=1;rounded=0;edgeStyle=orthogonalEdgeStyle;" parent="1" edge="1">
          <mxGeometry width="50" height="50" relative="1" as="geometry">
            <mxPoint x="740" y="150" as="sourcePoint" />
            <mxPoint x="760" y="180" as="targetPoint" />
            <Array as="points">
              <mxPoint x="760" y="150" />
            </Array>
          </mxGeometry>
        </mxCell>
        <mxCell id="ERGdIT2w2F6xUF8PgBJa-246" value="" style="endArrow=classic;html=1;rounded=0;edgeStyle=orthogonalEdgeStyle;entryX=0;entryY=0.5;entryDx=0;entryDy=0;" parent="1" target="ERGdIT2w2F6xUF8PgBJa-201" edge="1">
          <mxGeometry width="50" height="50" relative="1" as="geometry">
            <mxPoint x="780" y="210" as="sourcePoint" />
            <mxPoint x="795" y="261.5" as="targetPoint" />
            <Array as="points">
              <mxPoint x="800" y="210" />
            </Array>
          </mxGeometry>
        </mxCell>
        <mxCell id="ERGdIT2w2F6xUF8PgBJa-251" style="edgeStyle=orthogonalEdgeStyle;rounded=0;orthogonalLoop=1;jettySize=auto;html=1;" parent="1" edge="1">
          <mxGeometry relative="1" as="geometry">
            <mxPoint x="850" y="350" as="targetPoint" />
            <mxPoint x="820" y="350" as="sourcePoint" />
            <Array as="points">
              <mxPoint x="840" y="350" />
              <mxPoint x="840" y="350" />
            </Array>
          </mxGeometry>
        </mxCell>
        <mxCell id="ERGdIT2w2F6xUF8PgBJa-252" value="dout" style="text;html=1;align=center;verticalAlign=middle;resizable=0;points=[];autosize=1;strokeColor=none;fillColor=none;" parent="1" vertex="1">
          <mxGeometry x="840" y="334" width="50" height="30" as="geometry" />
        </mxCell>
        <mxCell id="ERGdIT2w2F6xUF8PgBJa-253" value="&lt;p style=&quot;line-height: 0%;&quot;&gt;&lt;b&gt;Counter&lt;/b&gt;&lt;/p&gt;&lt;p style=&quot;line-height: 0%;&quot;&gt;&lt;font style=&quot;font-size: 10px;&quot;&gt;2bit&lt;/font&gt;&lt;/p&gt;&lt;p&gt;&lt;/p&gt;" style="rounded=1;whiteSpace=wrap;html=1;" parent="1" vertex="1">
          <mxGeometry x="260" y="340" width="60" height="60" as="geometry" />
        </mxCell>
        <mxCell id="ERGdIT2w2F6xUF8PgBJa-255" value="" style="triangle;whiteSpace=wrap;html=1;rotation=-90;" parent="1" vertex="1">
          <mxGeometry x="284.5" y="387" width="11" height="15" as="geometry" />
        </mxCell>
        <mxCell id="ERGdIT2w2F6xUF8PgBJa-256" value="" style="endArrow=classic;html=1;rounded=0;endSize=3;" parent="1" edge="1">
          <mxGeometry width="50" height="50" relative="1" as="geometry">
            <mxPoint x="240" y="380" as="sourcePoint" />
            <mxPoint x="260" y="380" as="targetPoint" />
          </mxGeometry>
        </mxCell>
        <mxCell id="ERGdIT2w2F6xUF8PgBJa-257" value="rst_n" style="text;html=1;align=center;verticalAlign=middle;resizable=0;points=[];autosize=1;strokeColor=none;fillColor=none;" parent="1" vertex="1">
          <mxGeometry x="200" y="364" width="50" height="30" as="geometry" />
        </mxCell>
        <mxCell id="ERGdIT2w2F6xUF8PgBJa-258" style="edgeStyle=orthogonalEdgeStyle;rounded=0;orthogonalLoop=1;jettySize=auto;html=1;entryX=0.5;entryY=1;entryDx=0;entryDy=0;endArrow=classic;endFill=1;strokeWidth=1;endSize=3;" parent="1" edge="1">
          <mxGeometry relative="1" as="geometry">
            <mxPoint x="280" y="410" as="sourcePoint" />
            <mxPoint x="290" y="400" as="targetPoint" />
          </mxGeometry>
        </mxCell>
        <mxCell id="ERGdIT2w2F6xUF8PgBJa-259" value="clk" style="text;html=1;align=center;verticalAlign=middle;resizable=0;points=[];autosize=1;strokeColor=none;fillColor=none;" parent="1" vertex="1">
          <mxGeometry x="250" y="393" width="40" height="30" as="geometry" />
        </mxCell>
        <mxCell id="ERGdIT2w2F6xUF8PgBJa-262" value="" style="endArrow=classic;html=1;rounded=0;endSize=3;" parent="1" edge="1">
          <mxGeometry width="50" height="50" relative="1" as="geometry">
            <mxPoint x="240" y="360" as="sourcePoint" />
            <mxPoint x="260" y="360" as="targetPoint" />
          </mxGeometry>
        </mxCell>
        <mxCell id="ERGdIT2w2F6xUF8PgBJa-263" value="+1" style="text;html=1;align=center;verticalAlign=middle;resizable=0;points=[];autosize=1;strokeColor=none;fillColor=none;" parent="1" vertex="1">
          <mxGeometry x="212" y="344" width="40" height="30" as="geometry" />
        </mxCell>
        <mxCell id="ERGdIT2w2F6xUF8PgBJa-265" value="" style="shape=ellipse;fillColor=#000000;strokeColor=none;html=1;sketch=0;fontFamily=Helvetica;fontSize=11;fontColor=default;labelBackgroundColor=default;" parent="1" vertex="1">
          <mxGeometry x="337" y="266" width="6" height="6" as="geometry" />
        </mxCell>
        <mxCell id="ERGdIT2w2F6xUF8PgBJa-266" value="" style="shape=ellipse;fillColor=#000000;strokeColor=none;html=1;sketch=0;fontFamily=Helvetica;fontSize=11;fontColor=default;labelBackgroundColor=default;" parent="1" vertex="1">
          <mxGeometry x="337" y="367" width="6" height="6" as="geometry" />
        </mxCell>
        <mxCell id="ERGdIT2w2F6xUF8PgBJa-267" value="" style="shape=ellipse;fillColor=#000000;strokeColor=none;html=1;sketch=0;fontFamily=Helvetica;fontSize=11;fontColor=default;labelBackgroundColor=default;" parent="1" vertex="1">
          <mxGeometry x="337" y="387" width="6" height="6" as="geometry" />
        </mxCell>
        <mxCell id="ERGdIT2w2F6xUF8PgBJa-270" value="" style="shape=ellipse;fillColor=#000000;strokeColor=none;html=1;sketch=0;fontFamily=Helvetica;fontSize=11;fontColor=default;labelBackgroundColor=default;" parent="1" vertex="1">
          <mxGeometry x="337" y="507" width="6" height="6" as="geometry" />
        </mxCell>
        <mxCell id="ERGdIT2w2F6xUF8PgBJa-271" value="cnt" style="text;html=1;align=center;verticalAlign=middle;resizable=0;points=[];autosize=1;strokeColor=none;fillColor=none;fontColor=#999999;" parent="1" vertex="1">
          <mxGeometry x="331" y="347" width="40" height="30" as="geometry" />
        </mxCell>
        <mxCell id="ERGdIT2w2F6xUF8PgBJa-273" value="" style="group" parent="1" vertex="1" connectable="0">
          <mxGeometry x="647" y="477" width="30" height="24" as="geometry" />
        </mxCell>
        <mxCell id="ERGdIT2w2F6xUF8PgBJa-274" value="" style="endArrow=none;html=1;rounded=0;" parent="ERGdIT2w2F6xUF8PgBJa-273" edge="1">
          <mxGeometry width="50" height="50" relative="1" as="geometry">
            <mxPoint x="14" y="24" as="sourcePoint" />
            <mxPoint x="19" y="14" as="targetPoint" />
          </mxGeometry>
        </mxCell>
        <mxCell id="ERGdIT2w2F6xUF8PgBJa-275" value="2" style="text;html=1;align=center;verticalAlign=middle;resizable=0;points=[];autosize=1;strokeColor=none;fillColor=none;fontSize=9;" parent="ERGdIT2w2F6xUF8PgBJa-273" vertex="1">
          <mxGeometry width="30" height="20" as="geometry" />
        </mxCell>
        <mxCell id="vsjRiPHQuVq7-Bb2BKys-1" value="" style="endArrow=classic;html=1;rounded=0;edgeStyle=orthogonalEdgeStyle;" edge="1" parent="1">
          <mxGeometry width="50" height="50" relative="1" as="geometry">
            <mxPoint x="790" y="210" as="sourcePoint" />
            <mxPoint x="850" y="210" as="targetPoint" />
            <Array as="points">
              <mxPoint x="805" y="210" />
            </Array>
          </mxGeometry>
        </mxCell>
        <mxCell id="vsjRiPHQuVq7-Bb2BKys-2" value="valid" style="text;html=1;align=center;verticalAlign=middle;resizable=0;points=[];autosize=1;strokeColor=none;fillColor=none;" vertex="1" parent="1">
          <mxGeometry x="840" y="194" width="50" height="30" as="geometry" />
        </mxCell>
        <mxCell id="vsjRiPHQuVq7-Bb2BKys-3" value="" style="shape=ellipse;fillColor=#000000;strokeColor=none;html=1;sketch=0;fontFamily=Helvetica;fontSize=11;fontColor=default;labelBackgroundColor=default;" vertex="1" parent="1">
          <mxGeometry x="797" y="207" width="6" height="6" as="geometry" />
        </mxCell>
      </root>
    </mxGraphModel>
  </diagram>
</mxfile>
